# xmcd
# 
# Track frame offsets:
#     150
#     25240
#     44152
#     64154
#     81387
#     97281
#     113045
#     132479
#     155869
#     173610
#     185983
#     200273
#     218068
#     236738
# 
# Disc length: 3432
# 
# Revision: 32
# Processed by: cddbd v1.5.2PL0 Copyright (c) Steve Scherf et al.
# Submitted via: fre:ac v1.0.17
# 
DISCID=d80d660e
DTITLE=Clapton, Eric and Cale, J.J. (USA-06-The Road To Escondido-bls) - The Road to Escondido
DYEAR=2006
DGENRE=Blues
TTITLE0=Danger
TTITLE1=Heads In Georgia
TTITLE2=Missing Person
TTITLE3=When This War Is Over
TTITLE4=Sporting Life Blues
TTITLE5=Dead End Road
TTITLE6=It's Easy
TTITLE7=Hard To Thrill
TTITLE8=Anyway The Wind Blows
TTITLE9=Three Little Girls
TTITLE10=Don't Cry Sister
TTITLE11=Last Will And Testament
TTITLE12=Who Am I Telling You?
TTITLE13=Ride the River
EXTD=Produced by Eric Clapton and JJ Cale\nIn Memory of Billy Preston and Brian Roylance\n YEAR: 2006
EXTT0=
EXTT1=
EXTT2=
EXTT3=
EXTT4=
EXTT5=
EXTT6=
EXTT7=
EXTT8=
EXTT9=
EXTT10=
EXTT11=
EXTT12=
EXTT13=
PLAYORDER=
